<svg xmlns="http://www.w3.org/2000/svg" width="760" height="792" viewBox="0 0 760 792" role="img" aria-label="TUI: edit existing parameter">
  <rect width="100%" height="100%" rx="18" fill="#06101f"/>
  <rect x="1" y="1" width="758" height="790" rx="18" fill="none" stroke="#1e3354"/>
  <circle cx="30" cy="28" r="6" fill="#ff5f57"/>
  <circle cx="52" cy="28" r="6" fill="#ffbd2e"/>
  <circle cx="74" cy="28" r="6" fill="#28c840"/>
  <text x="380" y="33" text-anchor="middle" font-family="ui-monospace, SFMono-Regular, Menlo, Consolas, monospace" font-size="13" fill="#8fb3d9">TUI: edit existing parameter</text>
  <g font-family="ui-monospace, SFMono-Regular, Menlo, Consolas, monospace" font-size="14" fill="#d7e2f1">
    <text x="28" y="64" xml:space="preserve">                                                           Edit Parameter</text><text x="28" y="84" xml:space="preserve"> Name:        /acme/prod/service-03/SESSION_SECRET</text><text x="28" y="104" xml:space="preserve"> Region:      eu-north-1</text><text x="28" y="124" xml:space="preserve"> Type:        SecureString</text><text x="28" y="144" xml:space="preserve"> Tier:        Standard</text><text x="28" y="164" xml:space="preserve"> DataType:    text</text><text x="28" y="184" xml:space="preserve"> Description: managed application parameter</text><text x="28" y="204" xml:space="preserve"> Value:       value-03█</text><text x="28" y="224" xml:space="preserve"></text><text x="28" y="244" xml:space="preserve"></text><text x="28" y="264" xml:space="preserve"></text><text x="28" y="284" xml:space="preserve"></text><text x="28" y="304" xml:space="preserve"></text><text x="28" y="324" xml:space="preserve"></text><text x="28" y="344" xml:space="preserve"></text><text x="28" y="364" xml:space="preserve"></text><text x="28" y="384" xml:space="preserve"></text><text x="28" y="404" xml:space="preserve"></text><text x="28" y="424" xml:space="preserve"></text><text x="28" y="444" xml:space="preserve"></text><text x="28" y="464" xml:space="preserve"></text><text x="28" y="484" xml:space="preserve"></text><text x="28" y="504" xml:space="preserve"></text><text x="28" y="524" xml:space="preserve"></text><text x="28" y="544" xml:space="preserve"></text><text x="28" y="564" xml:space="preserve"></text><text x="28" y="584" xml:space="preserve"></text><text x="28" y="604" xml:space="preserve"></text><text x="28" y="624" xml:space="preserve"></text><text x="28" y="644" xml:space="preserve"></text><text x="28" y="664" xml:space="preserve"></text><text x="28" y="684" xml:space="preserve"></text><text x="28" y="704" xml:space="preserve"></text><text x="28" y="724" xml:space="preserve"></text><text x="28" y="744" xml:space="preserve">ctrl+/ help • ctrl+s save • ctrl+l lines • alt+e value actions • esc back</text>
  </g>
</svg>
